<mxfile host="app.diagrams.net" modified="2023-10-06T00:46:54.485Z" agent="Mozilla/5.0 (Windows NT 10.0; Win64; x64) AppleWebKit/537.36 (KHTML, like Gecko) Chrome/117.0.0.0 Safari/537.36" etag="gLEb82yFjwFYEeRXCSPG" version="21.8.2" type="device">
  <diagram name="ページ1" id="5l7QdveWqn6ocP1i995m">
    <mxGraphModel dx="1032" dy="515" grid="1" gridSize="10" guides="1" tooltips="1" connect="1" arrows="1" fold="1" page="1" pageScale="1" pageWidth="827" pageHeight="1169" math="0" shadow="0">
      <root>
        <mxCell id="0" />
        <mxCell id="1" parent="0" />
        <mxCell id="cRcnCIdVFR8t62NlRf-L-1" value="新規登録　ログイン&lt;br&gt;ペペ　オハナ（仮）&lt;br&gt;”ドロップダウンメニュー”&lt;br&gt;未ログイン時&lt;br&gt;ログイン　ユーザー登録&lt;br&gt;ログイン時&lt;br&gt;マイページ　ログアウト&lt;br&gt;&lt;br&gt;新着ネコちゃん情報&lt;br&gt;&lt;br&gt;&lt;br&gt;&lt;br&gt;&lt;br&gt;&lt;br&gt;&lt;br&gt;&lt;br&gt;&lt;br&gt;&lt;br&gt;&lt;br&gt;&lt;br&gt;&lt;br&gt;&lt;br&gt;&lt;br&gt;&lt;br&gt;里親募集検索" style="rounded=0;whiteSpace=wrap;html=1;verticalAlign=top;" parent="1" vertex="1">
          <mxGeometry x="20" y="50" width="220" height="460" as="geometry" />
        </mxCell>
        <mxCell id="cRcnCIdVFR8t62NlRf-L-19" value="トップページ" style="rounded=0;whiteSpace=wrap;html=1;" parent="1" vertex="1">
          <mxGeometry x="85" y="20" width="90" height="20" as="geometry" />
        </mxCell>
        <mxCell id="cRcnCIdVFR8t62NlRf-L-24" value="検索結果表示" style="rounded=0;whiteSpace=wrap;html=1;" parent="1" vertex="1">
          <mxGeometry x="370" y="20" width="90" height="20" as="geometry" />
        </mxCell>
        <mxCell id="cRcnCIdVFR8t62NlRf-L-25" value="猫　オス、メス　　子猫、成猫、老猫" style="rounded=1;whiteSpace=wrap;html=1;verticalAlign=top;align=left;" parent="1" vertex="1">
          <mxGeometry x="25" y="440" width="210" height="30" as="geometry" />
        </mxCell>
        <mxCell id="cRcnCIdVFR8t62NlRf-L-26" value="絞り込み検索" style="rounded=0;whiteSpace=wrap;html=1;" parent="1" vertex="1">
          <mxGeometry x="90" y="480" width="80" height="20" as="geometry" />
        </mxCell>
        <mxCell id="cRcnCIdVFR8t62NlRf-L-30" value="" style="group" parent="1" vertex="1" connectable="0">
          <mxGeometry x="50" y="200" width="55" height="90" as="geometry" />
        </mxCell>
        <mxCell id="cRcnCIdVFR8t62NlRf-L-28" value="&lt;br&gt;名前&lt;br&gt;性別&lt;br&gt;年齢" style="rounded=0;whiteSpace=wrap;html=1;" parent="cRcnCIdVFR8t62NlRf-L-30" vertex="1">
          <mxGeometry width="55" height="90" as="geometry" />
        </mxCell>
        <mxCell id="cRcnCIdVFR8t62NlRf-L-27" value="写真" style="ellipse;whiteSpace=wrap;html=1;" parent="cRcnCIdVFR8t62NlRf-L-30" vertex="1">
          <mxGeometry width="52.5" height="20" as="geometry" />
        </mxCell>
        <mxCell id="cRcnCIdVFR8t62NlRf-L-31" value="" style="group" parent="1" vertex="1" connectable="0">
          <mxGeometry x="170" y="200" width="55" height="90" as="geometry" />
        </mxCell>
        <mxCell id="cRcnCIdVFR8t62NlRf-L-32" value="&lt;br&gt;名前&lt;br&gt;性別&lt;br&gt;年齢" style="rounded=0;whiteSpace=wrap;html=1;" parent="cRcnCIdVFR8t62NlRf-L-31" vertex="1">
          <mxGeometry width="55" height="90" as="geometry" />
        </mxCell>
        <mxCell id="cRcnCIdVFR8t62NlRf-L-33" value="写真" style="ellipse;whiteSpace=wrap;html=1;" parent="cRcnCIdVFR8t62NlRf-L-31" vertex="1">
          <mxGeometry width="52.5" height="20" as="geometry" />
        </mxCell>
        <mxCell id="cRcnCIdVFR8t62NlRf-L-34" value="" style="group" parent="1" vertex="1" connectable="0">
          <mxGeometry x="170" y="300" width="55" height="90" as="geometry" />
        </mxCell>
        <mxCell id="cRcnCIdVFR8t62NlRf-L-35" value="&lt;br&gt;名前&lt;br&gt;性別&lt;br&gt;年齢" style="rounded=0;whiteSpace=wrap;html=1;" parent="cRcnCIdVFR8t62NlRf-L-34" vertex="1">
          <mxGeometry width="55" height="90" as="geometry" />
        </mxCell>
        <mxCell id="cRcnCIdVFR8t62NlRf-L-36" value="写真" style="ellipse;whiteSpace=wrap;html=1;" parent="cRcnCIdVFR8t62NlRf-L-34" vertex="1">
          <mxGeometry x="1.25" width="52.5" height="20" as="geometry" />
        </mxCell>
        <mxCell id="cRcnCIdVFR8t62NlRf-L-37" value="" style="group" parent="1" vertex="1" connectable="0">
          <mxGeometry x="110" y="200" width="55" height="90" as="geometry" />
        </mxCell>
        <mxCell id="cRcnCIdVFR8t62NlRf-L-38" value="&lt;br&gt;名前&lt;br&gt;性別&lt;br&gt;年齢" style="rounded=0;whiteSpace=wrap;html=1;" parent="cRcnCIdVFR8t62NlRf-L-37" vertex="1">
          <mxGeometry width="55" height="90" as="geometry" />
        </mxCell>
        <mxCell id="cRcnCIdVFR8t62NlRf-L-39" value="写真" style="ellipse;whiteSpace=wrap;html=1;" parent="cRcnCIdVFR8t62NlRf-L-37" vertex="1">
          <mxGeometry width="52.5" height="20" as="geometry" />
        </mxCell>
        <mxCell id="cRcnCIdVFR8t62NlRf-L-40" value="" style="group" parent="1" vertex="1" connectable="0">
          <mxGeometry x="50" y="300" width="55" height="90" as="geometry" />
        </mxCell>
        <mxCell id="cRcnCIdVFR8t62NlRf-L-41" value="&lt;br&gt;名前&lt;br&gt;性別&lt;br&gt;年齢" style="rounded=0;whiteSpace=wrap;html=1;" parent="cRcnCIdVFR8t62NlRf-L-40" vertex="1">
          <mxGeometry width="55" height="90" as="geometry" />
        </mxCell>
        <mxCell id="cRcnCIdVFR8t62NlRf-L-42" value="写真" style="ellipse;whiteSpace=wrap;html=1;" parent="cRcnCIdVFR8t62NlRf-L-40" vertex="1">
          <mxGeometry x="2.5" width="52.5" height="20" as="geometry" />
        </mxCell>
        <mxCell id="cRcnCIdVFR8t62NlRf-L-43" value="" style="group" parent="1" vertex="1" connectable="0">
          <mxGeometry x="110" y="300" width="55" height="90" as="geometry" />
        </mxCell>
        <mxCell id="cRcnCIdVFR8t62NlRf-L-44" value="&lt;br&gt;名前&lt;br&gt;性別&lt;br&gt;年齢" style="rounded=0;whiteSpace=wrap;html=1;" parent="cRcnCIdVFR8t62NlRf-L-43" vertex="1">
          <mxGeometry width="55" height="90" as="geometry" />
        </mxCell>
        <mxCell id="cRcnCIdVFR8t62NlRf-L-45" value="写真" style="ellipse;whiteSpace=wrap;html=1;" parent="cRcnCIdVFR8t62NlRf-L-43" vertex="1">
          <mxGeometry x="1.25" width="52.5" height="20" as="geometry" />
        </mxCell>
        <mxCell id="cRcnCIdVFR8t62NlRf-L-86" value="ネコちゃん詳細画面" style="rounded=0;whiteSpace=wrap;html=1;" parent="1" vertex="1">
          <mxGeometry x="650" y="15" width="90" height="30" as="geometry" />
        </mxCell>
        <mxCell id="cRcnCIdVFR8t62NlRf-L-96" value="" style="group" parent="1" vertex="1" connectable="0">
          <mxGeometry x="615" y="50" width="160" height="210" as="geometry" />
        </mxCell>
        <mxCell id="cRcnCIdVFR8t62NlRf-L-9" value="ネコちゃん情報&lt;br&gt;&lt;br&gt;&lt;br&gt;&lt;br&gt;&lt;br&gt;名前　○○&lt;br&gt;性別　○○&lt;br&gt;年齢　○○歳&lt;br&gt;&lt;br&gt;&lt;br&gt;&lt;u&gt;メッセージを送る&lt;/u&gt;&lt;br&gt;&lt;br&gt;前へ戻る&lt;br&gt;トップへ戻る" style="rounded=0;whiteSpace=wrap;html=1;verticalAlign=top;" parent="cRcnCIdVFR8t62NlRf-L-96" vertex="1">
          <mxGeometry width="160" height="210" as="geometry" />
        </mxCell>
        <mxCell id="cRcnCIdVFR8t62NlRf-L-87" value="写真" style="ellipse;whiteSpace=wrap;html=1;" parent="cRcnCIdVFR8t62NlRf-L-96" vertex="1">
          <mxGeometry x="32.5" y="25" width="95" height="50" as="geometry" />
        </mxCell>
        <mxCell id="cRcnCIdVFR8t62NlRf-L-114" value="絞り込み検索" style="rounded=0;whiteSpace=wrap;html=1;fillColor=none;strokeColor=none;" parent="1" vertex="1">
          <mxGeometry x="257.5" y="180" width="22.5" height="20" as="geometry" />
        </mxCell>
        <mxCell id="cRcnCIdVFR8t62NlRf-L-115" value="トップへ戻る" style="rounded=0;whiteSpace=wrap;html=1;fillColor=none;strokeColor=none;" parent="1" vertex="1">
          <mxGeometry x="264" y="410" width="25" height="20" as="geometry" />
        </mxCell>
        <mxCell id="cRcnCIdVFR8t62NlRf-L-117" value="犬猫ボックスクリック" style="rounded=0;whiteSpace=wrap;html=1;fillColor=none;strokeColor=none;" parent="1" vertex="1">
          <mxGeometry x="580" y="70" width="20" height="30" as="geometry" />
        </mxCell>
        <mxCell id="cRcnCIdVFR8t62NlRf-L-118" value="前へ戻る" style="rounded=0;whiteSpace=wrap;html=1;fillColor=none;strokeColor=none;" parent="1" vertex="1">
          <mxGeometry x="575" y="200" width="25" height="40" as="geometry" />
        </mxCell>
        <mxCell id="cRcnCIdVFR8t62NlRf-L-121" value="戻る" style="rounded=0;whiteSpace=wrap;html=1;fillColor=none;strokeColor=none;" parent="1" vertex="1">
          <mxGeometry x="690" y="270" width="20" height="20" as="geometry" />
        </mxCell>
        <mxCell id="TUVgvogGvI2CKYqyUXiJ-15" value="" style="group" parent="1" vertex="1" connectable="0">
          <mxGeometry x="300" y="50" width="260" height="420" as="geometry" />
        </mxCell>
        <mxCell id="cRcnCIdVFR8t62NlRf-L-4" value="検索結果&lt;br&gt;検索条件　　　○○、○○&lt;br&gt;&lt;br&gt;&lt;br&gt;&lt;br&gt;&lt;br&gt;&lt;br&gt;&lt;br&gt;&lt;br&gt;&lt;br&gt;&lt;br&gt;&lt;br&gt;&lt;br&gt;&lt;br&gt;&lt;br&gt;&lt;br&gt;&lt;br&gt;&lt;br&gt;&lt;br&gt;&lt;br&gt;&lt;br&gt;&lt;br&gt;&lt;br&gt;&lt;br&gt;&lt;br&gt;&lt;br&gt;&lt;br&gt;&lt;div style=&quot;text-align: left;&quot;&gt;　　　　　　　　　　　　　　　トップへ戻る&lt;/div&gt;" style="rounded=0;whiteSpace=wrap;html=1;verticalAlign=top;" parent="TUVgvogGvI2CKYqyUXiJ-15" vertex="1">
          <mxGeometry width="260" height="420" as="geometry" />
        </mxCell>
        <mxCell id="cRcnCIdVFR8t62NlRf-L-46" value="" style="group" parent="TUVgvogGvI2CKYqyUXiJ-15" vertex="1" connectable="0">
          <mxGeometry x="12.5" y="40" width="55" height="130" as="geometry" />
        </mxCell>
        <mxCell id="cRcnCIdVFR8t62NlRf-L-47" value="&lt;br&gt;名前&lt;br&gt;性別&lt;br&gt;年齢" style="rounded=0;whiteSpace=wrap;html=1;" parent="cRcnCIdVFR8t62NlRf-L-46" vertex="1">
          <mxGeometry width="55" height="90" as="geometry" />
        </mxCell>
        <mxCell id="cRcnCIdVFR8t62NlRf-L-48" value="写真" style="ellipse;whiteSpace=wrap;html=1;" parent="cRcnCIdVFR8t62NlRf-L-46" vertex="1">
          <mxGeometry x="1.25" width="52.5" height="20" as="geometry" />
        </mxCell>
        <mxCell id="cRcnCIdVFR8t62NlRf-L-50" value="" style="group" parent="TUVgvogGvI2CKYqyUXiJ-15" vertex="1" connectable="0">
          <mxGeometry x="152.5" y="40" width="55" height="90" as="geometry" />
        </mxCell>
        <mxCell id="cRcnCIdVFR8t62NlRf-L-51" value="&lt;br&gt;名前&lt;br&gt;性別&lt;br&gt;年齢" style="rounded=0;whiteSpace=wrap;html=1;" parent="cRcnCIdVFR8t62NlRf-L-50" vertex="1">
          <mxGeometry width="55" height="90" as="geometry" />
        </mxCell>
        <mxCell id="cRcnCIdVFR8t62NlRf-L-52" value="写真" style="ellipse;whiteSpace=wrap;html=1;" parent="cRcnCIdVFR8t62NlRf-L-50" vertex="1">
          <mxGeometry x="1.25" width="52.5" height="20" as="geometry" />
        </mxCell>
        <mxCell id="cRcnCIdVFR8t62NlRf-L-53" value="" style="group" parent="TUVgvogGvI2CKYqyUXiJ-15" vertex="1" connectable="0">
          <mxGeometry x="82.5" y="40" width="55" height="90" as="geometry" />
        </mxCell>
        <mxCell id="cRcnCIdVFR8t62NlRf-L-54" value="&lt;br&gt;名前&lt;br&gt;性別&lt;br&gt;年齢" style="rounded=0;whiteSpace=wrap;html=1;" parent="cRcnCIdVFR8t62NlRf-L-53" vertex="1">
          <mxGeometry width="55" height="90" as="geometry" />
        </mxCell>
        <mxCell id="cRcnCIdVFR8t62NlRf-L-55" value="写真" style="ellipse;whiteSpace=wrap;html=1;" parent="cRcnCIdVFR8t62NlRf-L-53" vertex="1">
          <mxGeometry x="1.25" width="52.5" height="20" as="geometry" />
        </mxCell>
        <mxCell id="cRcnCIdVFR8t62NlRf-L-56" value="" style="group" parent="TUVgvogGvI2CKYqyUXiJ-15" vertex="1" connectable="0">
          <mxGeometry x="13.75" y="150" width="55" height="90" as="geometry" />
        </mxCell>
        <mxCell id="cRcnCIdVFR8t62NlRf-L-57" value="&lt;br&gt;名前&lt;br&gt;性別&lt;br&gt;年齢" style="rounded=0;whiteSpace=wrap;html=1;" parent="cRcnCIdVFR8t62NlRf-L-56" vertex="1">
          <mxGeometry width="55" height="90" as="geometry" />
        </mxCell>
        <mxCell id="cRcnCIdVFR8t62NlRf-L-58" value="写真" style="ellipse;whiteSpace=wrap;html=1;" parent="cRcnCIdVFR8t62NlRf-L-56" vertex="1">
          <mxGeometry x="2.5" width="52.5" height="20" as="geometry" />
        </mxCell>
        <mxCell id="cRcnCIdVFR8t62NlRf-L-69" value="" style="group" parent="TUVgvogGvI2CKYqyUXiJ-15" vertex="1" connectable="0">
          <mxGeometry x="82.5" y="150" width="55" height="90" as="geometry" />
        </mxCell>
        <mxCell id="cRcnCIdVFR8t62NlRf-L-70" value="&lt;br&gt;名前&lt;br&gt;性別&lt;br&gt;年齢" style="rounded=0;whiteSpace=wrap;html=1;" parent="cRcnCIdVFR8t62NlRf-L-69" vertex="1">
          <mxGeometry width="55" height="90" as="geometry" />
        </mxCell>
        <mxCell id="cRcnCIdVFR8t62NlRf-L-71" value="写真" style="ellipse;whiteSpace=wrap;html=1;" parent="cRcnCIdVFR8t62NlRf-L-69" vertex="1">
          <mxGeometry x="1.25" width="52.5" height="20" as="geometry" />
        </mxCell>
        <mxCell id="cRcnCIdVFR8t62NlRf-L-72" value="" style="group" parent="TUVgvogGvI2CKYqyUXiJ-15" vertex="1" connectable="0">
          <mxGeometry x="152.5" y="150" width="55" height="90" as="geometry" />
        </mxCell>
        <mxCell id="cRcnCIdVFR8t62NlRf-L-73" value="&lt;br&gt;名前&lt;br&gt;性別&lt;br&gt;年齢" style="rounded=0;whiteSpace=wrap;html=1;" parent="cRcnCIdVFR8t62NlRf-L-72" vertex="1">
          <mxGeometry width="55" height="90" as="geometry" />
        </mxCell>
        <mxCell id="cRcnCIdVFR8t62NlRf-L-74" value="写真" style="ellipse;whiteSpace=wrap;html=1;" parent="cRcnCIdVFR8t62NlRf-L-72" vertex="1">
          <mxGeometry x="1.25" width="52.5" height="20" as="geometry" />
        </mxCell>
        <mxCell id="cRcnCIdVFR8t62NlRf-L-83" value="絞り込み検索" style="rounded=0;whiteSpace=wrap;html=1;" parent="TUVgvogGvI2CKYqyUXiJ-15" vertex="1">
          <mxGeometry x="92.5" y="370" width="80" height="20" as="geometry" />
        </mxCell>
        <mxCell id="h3qFTqK-qr5tWKLy94Pv-67" value="" style="group" parent="1" vertex="1" connectable="0">
          <mxGeometry x="690" y="310" width="120" height="230" as="geometry" />
        </mxCell>
        <mxCell id="h3qFTqK-qr5tWKLy94Pv-68" value="メッセージ送信画面" style="rounded=0;whiteSpace=wrap;html=1;" parent="h3qFTqK-qr5tWKLy94Pv-67" vertex="1">
          <mxGeometry width="120" height="20" as="geometry" />
        </mxCell>
        <mxCell id="h3qFTqK-qr5tWKLy94Pv-69" value="" style="group" parent="h3qFTqK-qr5tWKLy94Pv-67" vertex="1" connectable="0">
          <mxGeometry y="30" width="120" height="200" as="geometry" />
        </mxCell>
        <mxCell id="h3qFTqK-qr5tWKLy94Pv-70" value="送信者　ID ○○&lt;br&gt;送信相手　ID ○○&lt;br&gt;メッセージ&lt;br&gt;&lt;br&gt;&lt;br&gt;&lt;br&gt;&lt;br&gt;&lt;br&gt;&lt;br&gt;&lt;br&gt;&lt;br&gt;&lt;br&gt;　　　　前へ戻る" style="rounded=0;whiteSpace=wrap;html=1;verticalAlign=top;" parent="h3qFTqK-qr5tWKLy94Pv-69" vertex="1">
          <mxGeometry width="120" height="200" as="geometry" />
        </mxCell>
        <mxCell id="h3qFTqK-qr5tWKLy94Pv-71" value="" style="rounded=0;whiteSpace=wrap;html=1;" parent="h3qFTqK-qr5tWKLy94Pv-69" vertex="1">
          <mxGeometry x="15" y="55" width="90" height="90" as="geometry" />
        </mxCell>
        <mxCell id="h3qFTqK-qr5tWKLy94Pv-72" value="送信" style="rounded=0;whiteSpace=wrap;html=1;" parent="h3qFTqK-qr5tWKLy94Pv-69" vertex="1">
          <mxGeometry x="30" y="150" width="50" height="20" as="geometry" />
        </mxCell>
        <mxCell id="fOcxW8BvlJguZzoaRflR-26" value="" style="endArrow=classic;html=1;rounded=0;exitX=0.5;exitY=1;exitDx=0;exitDy=0;entryX=0.75;entryY=1;entryDx=0;entryDy=0;" parent="h3qFTqK-qr5tWKLy94Pv-69" source="h3qFTqK-qr5tWKLy94Pv-70" target="h3qFTqK-qr5tWKLy94Pv-70" edge="1">
          <mxGeometry width="50" height="50" relative="1" as="geometry">
            <mxPoint x="-300" y="180" as="sourcePoint" />
            <mxPoint x="120" y="310" as="targetPoint" />
            <Array as="points">
              <mxPoint x="60" y="280" />
              <mxPoint x="90" y="280" />
            </Array>
          </mxGeometry>
        </mxCell>
        <mxCell id="h3qFTqK-qr5tWKLy94Pv-74" value="" style="endArrow=classic;html=1;rounded=0;exitX=1;exitY=0.25;exitDx=0;exitDy=0;entryX=-0.007;entryY=0.23;entryDx=0;entryDy=0;entryPerimeter=0;" parent="1" source="cRcnCIdVFR8t62NlRf-L-1" target="cRcnCIdVFR8t62NlRf-L-4" edge="1">
          <mxGeometry width="50" height="50" relative="1" as="geometry">
            <mxPoint x="390" y="310" as="sourcePoint" />
            <mxPoint x="440" y="260" as="targetPoint" />
          </mxGeometry>
        </mxCell>
        <mxCell id="h3qFTqK-qr5tWKLy94Pv-75" value="" style="endArrow=classic;html=1;rounded=0;exitX=0.002;exitY=0.767;exitDx=0;exitDy=0;exitPerimeter=0;entryX=1.012;entryY=0.823;entryDx=0;entryDy=0;entryPerimeter=0;" parent="1" source="cRcnCIdVFR8t62NlRf-L-4" target="cRcnCIdVFR8t62NlRf-L-1" edge="1">
          <mxGeometry width="50" height="50" relative="1" as="geometry">
            <mxPoint x="390" y="310" as="sourcePoint" />
            <mxPoint x="440" y="260" as="targetPoint" />
          </mxGeometry>
        </mxCell>
        <mxCell id="h3qFTqK-qr5tWKLy94Pv-76" value="" style="endArrow=classic;html=1;rounded=0;entryX=0;entryY=0.25;entryDx=0;entryDy=0;exitX=1.002;exitY=0.126;exitDx=0;exitDy=0;exitPerimeter=0;" parent="1" source="cRcnCIdVFR8t62NlRf-L-4" target="cRcnCIdVFR8t62NlRf-L-9" edge="1">
          <mxGeometry width="50" height="50" relative="1" as="geometry">
            <mxPoint x="390" y="310" as="sourcePoint" />
            <mxPoint x="440" y="260" as="targetPoint" />
          </mxGeometry>
        </mxCell>
        <mxCell id="h3qFTqK-qr5tWKLy94Pv-77" value="" style="endArrow=classic;html=1;rounded=0;entryX=0.75;entryY=0;entryDx=0;entryDy=0;exitX=1;exitY=1;exitDx=0;exitDy=0;" parent="1" source="cRcnCIdVFR8t62NlRf-L-9" target="h3qFTqK-qr5tWKLy94Pv-68" edge="1">
          <mxGeometry width="50" height="50" relative="1" as="geometry">
            <mxPoint x="390" y="310" as="sourcePoint" />
            <mxPoint x="440" y="260" as="targetPoint" />
          </mxGeometry>
        </mxCell>
        <mxCell id="h3qFTqK-qr5tWKLy94Pv-78" value="" style="endArrow=classic;html=1;rounded=0;entryX=1.019;entryY=0.346;entryDx=0;entryDy=0;entryPerimeter=0;exitX=-0.001;exitY=0.687;exitDx=0;exitDy=0;exitPerimeter=0;" parent="1" source="cRcnCIdVFR8t62NlRf-L-9" target="cRcnCIdVFR8t62NlRf-L-4" edge="1">
          <mxGeometry width="50" height="50" relative="1" as="geometry">
            <mxPoint x="390" y="310" as="sourcePoint" />
            <mxPoint x="440" y="260" as="targetPoint" />
          </mxGeometry>
        </mxCell>
        <mxCell id="h3qFTqK-qr5tWKLy94Pv-79" value="" style="endArrow=classic;html=1;rounded=0;entryX=0.617;entryY=1.004;entryDx=0;entryDy=0;exitX=0.198;exitY=-0.122;exitDx=0;exitDy=0;exitPerimeter=0;entryPerimeter=0;" parent="1" source="h3qFTqK-qr5tWKLy94Pv-68" target="cRcnCIdVFR8t62NlRf-L-9" edge="1">
          <mxGeometry width="50" height="50" relative="1" as="geometry">
            <mxPoint x="390" y="420" as="sourcePoint" />
            <mxPoint x="440" y="370" as="targetPoint" />
          </mxGeometry>
        </mxCell>
        <mxCell id="h3qFTqK-qr5tWKLy94Pv-82" value="" style="endArrow=classic;html=1;rounded=0;exitX=0.25;exitY=1;exitDx=0;exitDy=0;entryX=0.996;entryY=0.424;entryDx=0;entryDy=0;entryPerimeter=0;" parent="1" source="h3qFTqK-qr5tWKLy94Pv-70" target="h3qFTqK-qr5tWKLy94Pv-90" edge="1">
          <mxGeometry width="50" height="50" relative="1" as="geometry">
            <mxPoint x="390" y="530" as="sourcePoint" />
            <mxPoint x="720" y="620" as="targetPoint" />
            <Array as="points">
              <mxPoint x="720" y="820" />
            </Array>
          </mxGeometry>
        </mxCell>
        <mxCell id="h3qFTqK-qr5tWKLy94Pv-84" value="メッセージを送る" style="rounded=0;whiteSpace=wrap;html=1;fillColor=none;strokeColor=none;" parent="1" vertex="1">
          <mxGeometry x="800" y="250" width="20" height="20" as="geometry" />
        </mxCell>
        <mxCell id="h3qFTqK-qr5tWKLy94Pv-87" value="" style="group" parent="1" vertex="1" connectable="0">
          <mxGeometry x="22.5" y="520" width="230" height="640" as="geometry" />
        </mxCell>
        <mxCell id="h3qFTqK-qr5tWKLy94Pv-88" value="マイページ" style="rounded=0;whiteSpace=wrap;html=1;" parent="h3qFTqK-qr5tWKLy94Pv-87" vertex="1">
          <mxGeometry x="70" width="80" height="20" as="geometry" />
        </mxCell>
        <mxCell id="h3qFTqK-qr5tWKLy94Pv-89" value="" style="group" parent="h3qFTqK-qr5tWKLy94Pv-87" vertex="1" connectable="0">
          <mxGeometry y="30" width="230" height="610" as="geometry" />
        </mxCell>
        <mxCell id="h3qFTqK-qr5tWKLy94Pv-90" value="ユーザーID　○○&lt;br&gt;名前　○○&lt;br&gt;&lt;u&gt;ユーザー情報の編集&lt;/u&gt;&lt;br&gt;&lt;br&gt;&lt;u&gt;ネコちゃん情報を登録する&lt;br&gt;&lt;/u&gt;&lt;br&gt;ネコちゃん登録情報&lt;br&gt;&lt;br&gt;&lt;br&gt;&lt;br&gt;名前　○○&lt;br&gt;性別　○○&lt;br&gt;年齢　○○歳&lt;br&gt;コメント　　　　&lt;br&gt;&lt;br&gt;&lt;br&gt;&lt;br&gt;&lt;span style=&quot;text-align: right; background-color: initial;&quot;&gt;&lt;br&gt;&lt;br&gt;&lt;br&gt;&lt;br&gt;&lt;br&gt;&lt;br&gt;&lt;br&gt;&lt;br&gt;&lt;br&gt;&lt;br&gt;&lt;br&gt;&lt;br&gt;&lt;br&gt;&lt;br&gt;&lt;br&gt;&lt;br&gt;&lt;br&gt;&lt;br&gt;&lt;br&gt;&lt;br&gt;&lt;br&gt;　　　　　　　　　　ログアウト&lt;/span&gt;&lt;br&gt;&lt;div style=&quot;text-align: right;&quot;&gt;トップへ戻る&lt;/div&gt;" style="rounded=0;whiteSpace=wrap;html=1;verticalAlign=top;" parent="h3qFTqK-qr5tWKLy94Pv-89" vertex="1">
          <mxGeometry width="230" height="610" as="geometry" />
        </mxCell>
        <mxCell id="h3qFTqK-qr5tWKLy94Pv-91" value="写真" style="ellipse;whiteSpace=wrap;html=1;" parent="h3qFTqK-qr5tWKLy94Pv-89" vertex="1">
          <mxGeometry x="67.5" y="110" width="95" height="44.29" as="geometry" />
        </mxCell>
        <mxCell id="h3qFTqK-qr5tWKLy94Pv-92" value="" style="rounded=0;whiteSpace=wrap;html=1;" parent="h3qFTqK-qr5tWKLy94Pv-89" vertex="1">
          <mxGeometry x="120" y="210" width="80" height="40" as="geometry" />
        </mxCell>
        <mxCell id="h3qFTqK-qr5tWKLy94Pv-93" value="編集" style="rounded=0;whiteSpace=wrap;html=1;" parent="h3qFTqK-qr5tWKLy94Pv-89" vertex="1">
          <mxGeometry x="50" y="270.00428571428563" width="59.58" height="31.428571428571427" as="geometry" />
        </mxCell>
        <mxCell id="h3qFTqK-qr5tWKLy94Pv-94" value="削除" style="rounded=0;whiteSpace=wrap;html=1;" parent="h3qFTqK-qr5tWKLy94Pv-89" vertex="1">
          <mxGeometry x="130" y="270.00428571428563" width="60" height="31.428571428571427" as="geometry" />
        </mxCell>
        <mxCell id="h3qFTqK-qr5tWKLy94Pv-95" value="メッセージ受信履歴&lt;br&gt;&lt;span style=&quot;background-color: initial;&quot;&gt;送信者ID メッセージ　時間　返信&lt;br&gt;&lt;ol&gt;&lt;li&gt;&lt;span style=&quot;background-color: initial;&quot;&gt;○○　　○○　　　○○　返信&lt;/span&gt;&lt;/li&gt;&lt;li style=&quot;border-color: var(--border-color);&quot;&gt;○○　　○○　　　○○　返信&lt;/li&gt;&lt;li style=&quot;border-color: var(--border-color);&quot;&gt;○○　　○○　　　○○　返信&lt;/li&gt;&lt;/ol&gt;&lt;/span&gt;&lt;div style=&quot;text-align: justify;&quot;&gt;&lt;/div&gt;" style="rounded=0;whiteSpace=wrap;html=1;verticalAlign=top;" parent="h3qFTqK-qr5tWKLy94Pv-89" vertex="1">
          <mxGeometry x="19.899999999999977" y="330" width="200.21" height="100" as="geometry" />
        </mxCell>
        <mxCell id="h3qFTqK-qr5tWKLy94Pv-96" value="メッセージ送信履歴&lt;br&gt;&lt;span style=&quot;background-color: initial;&quot;&gt;送信者ID メッセージ　時間　&lt;br&gt;&lt;ol&gt;&lt;li&gt;&lt;span style=&quot;background-color: initial;&quot;&gt;○○　　○○　　　○○　&lt;/span&gt;&lt;/li&gt;&lt;li style=&quot;border-color: var(--border-color);&quot;&gt;○○　　○○　　　○○　&lt;/li&gt;&lt;li style=&quot;border-color: var(--border-color);&quot;&gt;○○　　○○　　　○○　&lt;/li&gt;&lt;/ol&gt;&lt;/span&gt;&lt;div style=&quot;text-align: justify;&quot;&gt;&lt;/div&gt;" style="rounded=0;whiteSpace=wrap;html=1;verticalAlign=top;" parent="h3qFTqK-qr5tWKLy94Pv-89" vertex="1">
          <mxGeometry x="19.889999999999986" y="440" width="200.21" height="100" as="geometry" />
        </mxCell>
        <mxCell id="fOcxW8BvlJguZzoaRflR-25" value="送信失敗" style="rounded=0;whiteSpace=wrap;html=1;fillColor=none;strokeColor=none;" parent="1" vertex="1">
          <mxGeometry x="790" y="600" width="20" height="60" as="geometry" />
        </mxCell>
        <mxCell id="fOcxW8BvlJguZzoaRflR-29" value="マイページへ戻る" style="rounded=0;whiteSpace=wrap;html=1;fillColor=none;strokeColor=none;" parent="1" vertex="1">
          <mxGeometry x="450" y="820" width="21" height="20" as="geometry" />
        </mxCell>
        <mxCell id="zVE_Q1ZN4g6iV3RGSjRF-1" value="" style="endArrow=classic;html=1;rounded=0;exitX=0.996;exitY=0.089;exitDx=0;exitDy=0;exitPerimeter=0;entryX=0.167;entryY=1;entryDx=0;entryDy=0;entryPerimeter=0;" edge="1" parent="1" source="h3qFTqK-qr5tWKLy94Pv-90" target="h3qFTqK-qr5tWKLy94Pv-70">
          <mxGeometry width="50" height="50" relative="1" as="geometry">
            <mxPoint x="340" y="655" as="sourcePoint" />
            <mxPoint x="390" y="605" as="targetPoint" />
            <Array as="points">
              <mxPoint x="710" y="600" />
            </Array>
          </mxGeometry>
        </mxCell>
        <mxCell id="zVE_Q1ZN4g6iV3RGSjRF-2" value="返信" style="rounded=0;whiteSpace=wrap;html=1;fillColor=none;strokeColor=none;" vertex="1" parent="1">
          <mxGeometry x="440" y="560" width="20" height="30" as="geometry" />
        </mxCell>
      </root>
    </mxGraphModel>
  </diagram>
</mxfile>
